<svg width="267" height="250" viewBox="0 0 267 250" fill="none" xmlns="http://www.w3.org/2000/svg">
<mask id="path-1-inside-1_7_25" fill="white">
<path fill-rule="evenodd" clip-rule="evenodd" d="M133.5 250C207.23 250 267 194.036 267 125C267 55.9644 207.23 0 133.5 0C59.77 0 0 55.9644 0 125C0 194.036 59.77 250 133.5 250ZM133.5 72C148.246 72 160.2 60.8071 160.2 47C160.2 33.1929 148.246 22 133.5 22C118.754 22 106.8 33.1929 106.8 47C106.8 60.8071 118.754 72 133.5 72ZM144.18 125C144.18 130.523 139.398 135 133.5 135C127.602 135 122.82 130.523 122.82 125C122.82 119.477 127.602 115 133.5 115C139.398 115 144.18 119.477 144.18 125ZM192.24 205C206.986 205 218.94 193.807 218.94 180C218.94 166.193 206.986 155 192.24 155C177.494 155 165.54 166.193 165.54 180C165.54 193.807 177.494 205 192.24 205ZM101.46 180C101.46 193.807 89.506 205 74.76 205C60.014 205 48.06 193.807 48.06 180C48.06 166.193 60.014 155 74.76 155C89.506 155 101.46 166.193 101.46 180ZM74.76 95C89.506 95 101.46 83.8071 101.46 70C101.46 56.1929 89.506 45 74.76 45C60.014 45 48.06 56.1929 48.06 70C48.06 83.8071 60.014 95 74.76 95ZM218.94 70C218.94 83.8071 206.986 95 192.24 95C177.494 95 165.54 83.8071 165.54 70C165.54 56.1929 177.494 45 192.24 45C206.986 45 218.94 56.1929 218.94 70ZM216.804 150C231.55 150 243.504 138.807 243.504 125C243.504 111.193 231.55 100 216.804 100C202.058 100 190.104 111.193 190.104 125C190.104 138.807 202.058 150 216.804 150ZM76.896 125C76.896 138.807 64.942 150 50.196 150C35.45 150 23.496 138.807 23.496 125C23.496 111.193 35.45 100 50.196 100C64.942 100 76.896 111.193 76.896 125ZM133.5 228C148.246 228 160.2 216.807 160.2 203C160.2 189.193 148.246 178 133.5 178C118.754 178 106.8 189.193 106.8 203C106.8 216.807 118.754 228 133.5 228Z"/>
</mask>
<path fill-rule="evenodd" clip-rule="evenodd" d="M133.5 250C207.23 250 267 194.036 267 125C267 55.9644 207.23 0 133.5 0C59.77 0 0 55.9644 0 125C0 194.036 59.77 250 133.5 250ZM133.5 72C148.246 72 160.2 60.8071 160.2 47C160.2 33.1929 148.246 22 133.5 22C118.754 22 106.8 33.1929 106.8 47C106.8 60.8071 118.754 72 133.5 72ZM144.18 125C144.18 130.523 139.398 135 133.5 135C127.602 135 122.82 130.523 122.82 125C122.82 119.477 127.602 115 133.5 115C139.398 115 144.18 119.477 144.18 125ZM192.24 205C206.986 205 218.94 193.807 218.94 180C218.94 166.193 206.986 155 192.24 155C177.494 155 165.54 166.193 165.54 180C165.54 193.807 177.494 205 192.24 205ZM101.46 180C101.46 193.807 89.506 205 74.76 205C60.014 205 48.06 193.807 48.06 180C48.06 166.193 60.014 155 74.76 155C89.506 155 101.46 166.193 101.46 180ZM74.76 95C89.506 95 101.46 83.8071 101.46 70C101.46 56.1929 89.506 45 74.76 45C60.014 45 48.06 56.1929 48.06 70C48.06 83.8071 60.014 95 74.76 95ZM218.94 70C218.94 83.8071 206.986 95 192.24 95C177.494 95 165.54 83.8071 165.54 70C165.54 56.1929 177.494 45 192.24 45C206.986 45 218.94 56.1929 218.94 70ZM216.804 150C231.55 150 243.504 138.807 243.504 125C243.504 111.193 231.55 100 216.804 100C202.058 100 190.104 111.193 190.104 125C190.104 138.807 202.058 150 216.804 150ZM76.896 125C76.896 138.807 64.942 150 50.196 150C35.45 150 23.496 138.807 23.496 125C23.496 111.193 35.45 100 50.196 100C64.942 100 76.896 111.193 76.896 125ZM133.5 228C148.246 228 160.2 216.807 160.2 203C160.2 189.193 148.246 178 133.5 178C118.754 178 106.8 189.193 106.8 203C106.8 216.807 118.754 228 133.5 228Z" fill="black"/>
<path d="M265 125C265 192.809 206.251 248 133.5 248V252C208.209 252 269 195.262 269 125H265ZM133.5 2C206.251 2 265 57.1909 265 125H269C269 54.7379 208.209 -2 133.5 -2V2ZM2 125C2 57.1909 60.7486 2 133.5 2V-2C58.7914 -2 -2 54.7379 -2 125H2ZM133.5 248C60.7486 248 2 192.809 2 125H-2C-2 195.262 58.7914 252 133.5 252V248ZM158.2 47C158.2 59.5806 147.267 70 133.5 70V74C149.225 74 162.2 62.0336 162.2 47H158.2ZM133.5 24C147.267 24 158.2 34.4194 158.2 47H162.2C162.2 31.9664 149.225 20 133.5 20V24ZM108.8 47C108.8 34.4194 119.733 24 133.5 24V20C117.775 20 104.8 31.9664 104.8 47H108.8ZM133.5 70C119.733 70 108.8 59.5806 108.8 47H104.8C104.8 62.0336 117.775 74 133.5 74V70ZM133.5 137C140.377 137 146.18 131.749 146.18 125H142.18C142.18 129.296 138.42 133 133.5 133V137ZM120.82 125C120.82 131.749 126.623 137 133.5 137V133C128.58 133 124.82 129.296 124.82 125H120.82ZM133.5 113C126.623 113 120.82 118.251 120.82 125H124.82C124.82 120.704 128.58 117 133.5 117V113ZM146.18 125C146.18 118.251 140.377 113 133.5 113V117C138.42 117 142.18 120.704 142.18 125H146.18ZM216.94 180C216.94 192.581 206.007 203 192.24 203V207C207.965 207 220.94 195.034 220.94 180H216.94ZM192.24 157C206.007 157 216.94 167.419 216.94 180H220.94C220.94 164.966 207.965 153 192.24 153V157ZM167.54 180C167.54 167.419 178.473 157 192.24 157V153C176.515 153 163.54 164.966 163.54 180H167.54ZM192.24 203C178.473 203 167.54 192.581 167.54 180H163.54C163.54 195.034 176.515 207 192.24 207V203ZM74.76 207C90.4846 207 103.46 195.034 103.46 180H99.46C99.46 192.581 88.5274 203 74.76 203V207ZM46.06 180C46.06 195.034 59.0354 207 74.76 207V203C60.9926 203 50.06 192.581 50.06 180H46.06ZM74.76 153C59.0354 153 46.06 164.966 46.06 180H50.06C50.06 167.419 60.9926 157 74.76 157V153ZM103.46 180C103.46 164.966 90.4846 153 74.76 153V157C88.5274 157 99.46 167.419 99.46 180H103.46ZM99.46 70C99.46 82.5807 88.5274 93 74.76 93V97C90.4846 97 103.46 85.0336 103.46 70H99.46ZM74.76 47C88.5274 47 99.46 57.4194 99.46 70H103.46C103.46 54.9664 90.4846 43 74.76 43V47ZM50.06 70C50.06 57.4194 60.9926 47 74.76 47V43C59.0354 43 46.06 54.9664 46.06 70H50.06ZM74.76 93C60.9926 93 50.06 82.5807 50.06 70H46.06C46.06 85.0336 59.0354 97 74.76 97V93ZM192.24 97C207.965 97 220.94 85.0336 220.94 70H216.94C216.94 82.5807 206.007 93 192.24 93V97ZM163.54 70C163.54 85.0336 176.515 97 192.24 97V93C178.473 93 167.54 82.5807 167.54 70H163.54ZM192.24 43C176.515 43 163.54 54.9664 163.54 70H167.54C167.54 57.4194 178.473 47 192.24 47V43ZM220.94 70C220.94 54.9664 207.965 43 192.24 43V47C206.007 47 216.94 57.4194 216.94 70H220.94ZM241.504 125C241.504 137.581 230.571 148 216.804 148V152C232.529 152 245.504 140.034 245.504 125H241.504ZM216.804 102C230.571 102 241.504 112.419 241.504 125H245.504C245.504 109.966 232.529 98 216.804 98V102ZM192.104 125C192.104 112.419 203.037 102 216.804 102V98C201.079 98 188.104 109.966 188.104 125H192.104ZM216.804 148C203.037 148 192.104 137.581 192.104 125H188.104C188.104 140.034 201.079 152 216.804 152V148ZM50.196 152C65.9206 152 78.896 140.034 78.896 125H74.896C74.896 137.581 63.9634 148 50.196 148V152ZM21.496 125C21.496 140.034 34.4714 152 50.196 152V148C36.4286 148 25.496 137.581 25.496 125H21.496ZM50.196 98C34.4714 98 21.496 109.966 21.496 125H25.496C25.496 112.419 36.4286 102 50.196 102V98ZM78.896 125C78.896 109.966 65.9206 98 50.196 98V102C63.9634 102 74.896 112.419 74.896 125H78.896ZM158.2 203C158.2 215.581 147.267 226 133.5 226V230C149.225 230 162.2 218.034 162.2 203H158.2ZM133.5 180C147.267 180 158.2 190.419 158.2 203H162.2C162.2 187.966 149.225 176 133.5 176V180ZM108.8 203C108.8 190.419 119.733 180 133.5 180V176C117.775 176 104.8 187.966 104.8 203H108.8ZM133.5 226C119.733 226 108.8 215.581 108.8 203H104.8C104.8 218.034 117.775 230 133.5 230V226Z" fill="black" mask="url(#path-1-inside-1_7_25)"/>
<path d="M245.14 125C245.14 182.683 195.189 229.5 133.5 229.5C71.8114 229.5 21.86 182.683 21.86 125C21.86 67.3167 71.8114 20.5 133.5 20.5C195.189 20.5 245.14 67.3167 245.14 125Z" stroke="white"/>
</svg>
