<svg width="250" height="250" viewBox="0 0 250 250" fill="none" xmlns="http://www.w3.org/2000/svg">
<mask id="path-1-inside-1_7_25" fill="white">
<path fill-rule="evenodd" clip-rule="evenodd" d="M125 250C194.036 250 250 194.036 250 125C250 55.9644 194.036 0 125 0C55.9644 0 0 55.9644 0 125C0 194.036 55.9644 250 125 250ZM125 72C138.807 72 150 60.8071 150 47C150 33.1929 138.807 22 125 22C111.193 22 100 33.1929 100 47C100 60.8071 111.193 72 125 72ZM135 125C135 130.523 130.523 135 125 135C119.477 135 115 130.523 115 125C115 119.477 119.477 115 125 115C130.523 115 135 119.477 135 125ZM180 205C193.807 205 205 193.807 205 180C205 166.193 193.807 155 180 155C166.193 155 155 166.193 155 180C155 193.807 166.193 205 180 205ZM95 180C95 193.807 83.8071 205 70 205C56.1929 205 45 193.807 45 180C45 166.193 56.1929 155 70 155C83.8071 155 95 166.193 95 180ZM70 95C83.8071 95 95 83.8071 95 70C95 56.1929 83.8071 45 70 45C56.1929 45 45 56.1929 45 70C45 83.8071 56.1929 95 70 95ZM205 70C205 83.8071 193.807 95 180 95C166.193 95 155 83.8071 155 70C155 56.1929 166.193 45 180 45C193.807 45 205 56.1929 205 70ZM203 150C216.807 150 228 138.807 228 125C228 111.193 216.807 100 203 100C189.193 100 178 111.193 178 125C178 138.807 189.193 150 203 150ZM72 125C72 138.807 60.8071 150 47 150C33.1929 150 22 138.807 22 125C22 111.193 33.1929 100 47 100C60.8071 100 72 111.193 72 125ZM125 228C138.807 228 150 216.807 150 203C150 189.193 138.807 178 125 178C111.193 178 100 189.193 100 203C100 216.807 111.193 228 125 228Z"/>
</mask>
<path fill-rule="evenodd" clip-rule="evenodd" d="M125 250C194.036 250 250 194.036 250 125C250 55.9644 194.036 0 125 0C55.9644 0 0 55.9644 0 125C0 194.036 55.9644 250 125 250ZM125 72C138.807 72 150 60.8071 150 47C150 33.1929 138.807 22 125 22C111.193 22 100 33.1929 100 47C100 60.8071 111.193 72 125 72ZM135 125C135 130.523 130.523 135 125 135C119.477 135 115 130.523 115 125C115 119.477 119.477 115 125 115C130.523 115 135 119.477 135 125ZM180 205C193.807 205 205 193.807 205 180C205 166.193 193.807 155 180 155C166.193 155 155 166.193 155 180C155 193.807 166.193 205 180 205ZM95 180C95 193.807 83.8071 205 70 205C56.1929 205 45 193.807 45 180C45 166.193 56.1929 155 70 155C83.8071 155 95 166.193 95 180ZM70 95C83.8071 95 95 83.8071 95 70C95 56.1929 83.8071 45 70 45C56.1929 45 45 56.1929 45 70C45 83.8071 56.1929 95 70 95ZM205 70C205 83.8071 193.807 95 180 95C166.193 95 155 83.8071 155 70C155 56.1929 166.193 45 180 45C193.807 45 205 56.1929 205 70ZM203 150C216.807 150 228 138.807 228 125C228 111.193 216.807 100 203 100C189.193 100 178 111.193 178 125C178 138.807 189.193 150 203 150ZM72 125C72 138.807 60.8071 150 47 150C33.1929 150 22 138.807 22 125C22 111.193 33.1929 100 47 100C60.8071 100 72 111.193 72 125ZM125 228C138.807 228 150 216.807 150 203C150 189.193 138.807 178 125 178C111.193 178 100 189.193 100 203C100 216.807 111.193 228 125 228Z" fill="black"/>
<path d="M248 125C248 192.931 192.931 248 125 248V252C195.14 252 252 195.14 252 125H248ZM125 2C192.931 2 248 57.069 248 125H252C252 54.8598 195.14 -2 125 -2V2ZM2 125C2 57.069 57.069 2 125 2V-2C54.8598 -2 -2 54.8598 -2 125H2ZM125 248C57.069 248 2 192.931 2 125H-2C-2 195.14 54.8598 252 125 252V248ZM148 47C148 59.7025 137.703 70 125 70V74C139.912 74 152 61.9117 152 47H148ZM125 24C137.703 24 148 34.2975 148 47H152C152 32.0883 139.912 20 125 20V24ZM102 47C102 34.2975 112.297 24 125 24V20C110.088 20 98 32.0883 98 47H102ZM125 70C112.297 70 102 59.7025 102 47H98C98 61.9117 110.088 74 125 74V70ZM125 137C131.627 137 137 131.627 137 125H133C133 129.418 129.418 133 125 133V137ZM113 125C113 131.627 118.373 137 125 137V133C120.582 133 117 129.418 117 125H113ZM125 113C118.373 113 113 118.373 113 125H117C117 120.582 120.582 117 125 117V113ZM137 125C137 118.373 131.627 113 125 113V117C129.418 117 133 120.582 133 125H137ZM203 180C203 192.703 192.703 203 180 203V207C194.912 207 207 194.912 207 180H203ZM180 157C192.703 157 203 167.297 203 180H207C207 165.088 194.912 153 180 153V157ZM157 180C157 167.297 167.297 157 180 157V153C165.088 153 153 165.088 153 180H157ZM180 203C167.297 203 157 192.703 157 180H153C153 194.912 165.088 207 180 207V203ZM70 207C84.9117 207 97 194.912 97 180H93C93 192.703 82.7026 203 70 203V207ZM43 180C43 194.912 55.0883 207 70 207V203C57.2975 203 47 192.703 47 180H43ZM70 153C55.0883 153 43 165.088 43 180H47C47 167.297 57.2975 157 70 157V153ZM97 180C97 165.088 84.9117 153 70 153V157C82.7026 157 93 167.297 93 180H97ZM93 70C93 82.7026 82.7026 93 70 93V97C84.9117 97 97 84.9117 97 70H93ZM70 47C82.7026 47 93 57.2975 93 70H97C97 55.0883 84.9117 43 70 43V47ZM47 70C47 57.2975 57.2975 47 70 47V43C55.0883 43 43 55.0883 43 70H47ZM70 93C57.2975 93 47 82.7026 47 70H43C43 84.9117 55.0883 97 70 97V93ZM180 97C194.912 97 207 84.9117 207 70H203C203 82.7026 192.703 93 180 93V97ZM153 70C153 84.9117 165.088 97 180 97V93C167.297 93 157 82.7026 157 70H153ZM180 43C165.088 43 153 55.0883 153 70H157C157 57.2975 167.297 47 180 47V43ZM207 70C207 55.0883 194.912 43 180 43V47C192.703 47 203 57.2975 203 70H207ZM226 125C226 137.703 215.703 148 203 148V152C217.912 152 230 139.912 230 125H226ZM203 102C215.703 102 226 112.297 226 125H230C230 110.088 217.912 98 203 98V102ZM180 125C180 112.297 190.297 102 203 102V98C188.088 98 176 110.088 176 125H180ZM203 148C190.297 148 180 137.703 180 125H176C176 139.912 188.088 152 203 152V148ZM47 152C61.9117 152 74 139.912 74 125H70C70 137.703 59.7025 148 47 148V152ZM20 125C20 139.912 32.0883 152 47 152V148C34.2975 148 24 137.703 24 125H20ZM47 98C32.0883 98 20 110.088 20 125H24C24 112.297 34.2975 102 47 102V98ZM74 125C74 110.088 61.9117 98 47 98V102C59.7025 102 70 112.297 70 125H74ZM148 203C148 215.703 137.703 226 125 226V230C139.912 230 152 217.912 152 203H148ZM125 180C137.703 180 148 190.297 148 203H152C152 188.088 139.912 176 125 176V180ZM102 203C102 190.297 112.297 180 125 180V176C110.088 176 98 188.088 98 203H102ZM125 226C112.297 226 102 215.703 102 203H98C98 217.912 110.088 230 125 230V226Z" fill="black" mask="url(#path-1-inside-1_7_25)"/>
<circle cx="125" cy="125" r="104.5" stroke="white"/>
</svg>
