<svg width="901" height="348" viewBox="0 0 901 348" fill="none" xmlns="http://www.w3.org/2000/svg">
<path fill-rule="evenodd" clip-rule="evenodd" d="M152 86.5641C151.403 86.5641 150.821 86.6295 150.261 86.7535L0 0V277.128L150.261 190.375C150.821 190.499 151.403 190.564 152 190.564H163V198.564C163 202.982 166.582 206.564 171 206.564H207C211.418 206.564 215 202.982 215 198.564V190.564H223V317.564C223 334.133 236.431 347.564 253 347.564H808C824.569 347.564 838 334.133 838 317.564V99.5641H874.062C874.554 103.51 877.92 106.564 882 106.564H893C897.418 106.564 901 102.982 901 98.5641V47.5641C901 43.1458 897.418 39.5641 893 39.5641H882C877.582 39.5641 874 43.1458 874 47.5641H838V44.5641C838 27.9955 824.569 14.5641 808 14.5641H253C236.431 14.5641 223 27.9955 223 44.5641V86.5641H215V78.5641C215 74.1458 211.418 70.5641 207 70.5641H171C166.582 70.5641 163 74.1458 163 78.5641V86.5641H152Z" fill="black"/>
<path d="M636 66.5641C636 49.9955 649.431 36.5641 666 36.5641H771C787.569 36.5641 801 49.9955 801 66.5641V100.564C801 117.133 787.569 130.564 771 130.564H666C649.431 130.564 636 117.133 636 100.564V66.5641Z" fill="white"/>
<circle cx="279" cy="292.564" r="20" fill="white"/>
</svg>
